# xmcd
#
# Track frame offsets: 
#        150
#        14354
#        34200
#        60720
#        74162
#        91601
#        109018
#        126499
#        140526
#        156561
#        174211
#
# Disc length: 2459 seconds
#
# Revision: 0
# Processed by: cddbd v1.5.1PL0 Copyright (c) Steve Scherf et al.
# Submitted via: ExactAudioCopy v0.95a3
#
DISCID=9b09990b
DTITLE=The Andy Carlson Band - Log-a-rhythm
DYEAR=2005
DGENRE=Bluegrass
TTITLE0=The Hat and The Glasses
TTITLE1=A Long Way To Travel
TTITLE2=Gasology
TTITLE3=Peg Leg
TTITLE4=Going To The West
TTITLE5=A Deer In Headlights
TTITLE6=Little Madeline
TTITLE7=Outbound Plane
TTITLE8=Sheltowee
TTITLE9=Allemande From Partita #2 For Solo Violin
TTITLE10=Jealous
EXTD=
EXTT0=
EXTT1=
EXTT2=
EXTT3=
EXTT4=
EXTT5=
EXTT6=
EXTT7=
EXTT8=
EXTT9=
EXTT10=
PLAYORDER=
